<mxfile host="app.diagrams.net" modified="2022-09-09T06:54:49.256Z" agent="5.0 (Windows NT 10.0; Win64; x64) AppleWebKit/537.36 (KHTML, like Gecko) Chrome/104.0.5112.102 Safari/537.36 OPR/90.0.4480.86" etag="bzxRTiZFBWCVuo1dzWIc" version="20.3.0" type="github">
  <diagram id="C5RBs43oDa-KdzZeNtuy" name="Page-1">
    <mxGraphModel dx="2452" dy="935" grid="1" gridSize="10" guides="1" tooltips="1" connect="1" arrows="1" fold="1" page="1" pageScale="1" pageWidth="827" pageHeight="1169" math="0" shadow="0">
      <root>
        <mxCell id="WIyWlLk6GJQsqaUBKTNV-0" />
        <mxCell id="WIyWlLk6GJQsqaUBKTNV-1" parent="WIyWlLk6GJQsqaUBKTNV-0" />
        <mxCell id="zkfFHV4jXpPFQw0GAbJ--0" value="Aplicacion" style="swimlane;fontStyle=2;align=center;verticalAlign=top;childLayout=stackLayout;horizontal=1;startSize=26;horizontalStack=0;resizeParent=1;resizeLast=0;collapsible=1;marginBottom=0;rounded=0;shadow=0;strokeWidth=1;" parent="WIyWlLk6GJQsqaUBKTNV-1" vertex="1">
          <mxGeometry x="-370" y="40" width="160" height="112" as="geometry">
            <mxRectangle x="230" y="140" width="160" height="26" as="alternateBounds" />
          </mxGeometry>
        </mxCell>
        <mxCell id="zkfFHV4jXpPFQw0GAbJ--4" value="" style="line;html=1;strokeWidth=1;align=left;verticalAlign=middle;spacingTop=-1;spacingLeft=3;spacingRight=3;rotatable=0;labelPosition=right;points=[];portConstraint=eastwest;" parent="zkfFHV4jXpPFQw0GAbJ--0" vertex="1">
          <mxGeometry y="26" width="160" height="8" as="geometry" />
        </mxCell>
        <mxCell id="zkfFHV4jXpPFQw0GAbJ--5" value="+main(String[] args): void" style="text;align=left;verticalAlign=top;spacingLeft=4;spacingRight=4;overflow=hidden;rotatable=0;points=[[0,0.5],[1,0.5]];portConstraint=eastwest;" parent="zkfFHV4jXpPFQw0GAbJ--0" vertex="1">
          <mxGeometry y="34" width="160" height="26" as="geometry" />
        </mxCell>
        <mxCell id="MLmQVyr9P93g7gufr7wJ-302" value="" style="endArrow=open;html=1;rounded=0;entryX=0;entryY=0.5;entryDx=0;entryDy=0;endFill=0;" edge="1" parent="zkfFHV4jXpPFQw0GAbJ--0" target="MLmQVyr9P93g7gufr7wJ-48">
          <mxGeometry relative="1" as="geometry">
            <mxPoint x="160" y="50" as="sourcePoint" />
            <mxPoint x="275.84000000000015" y="49.997999999999934" as="targetPoint" />
          </mxGeometry>
        </mxCell>
        <mxCell id="MLmQVyr9P93g7gufr7wJ-303" value="1&lt;br&gt;U*BER" style="edgeLabel;resizable=0;html=1;align=right;verticalAlign=bottom;" connectable="0" vertex="1" parent="MLmQVyr9P93g7gufr7wJ-302">
          <mxGeometry x="1" relative="1" as="geometry">
            <mxPoint x="-2" y="-10" as="offset" />
          </mxGeometry>
        </mxCell>
        <mxCell id="MLmQVyr9P93g7gufr7wJ-40" value="+mostrarMenu(): void" style="text;align=left;verticalAlign=top;spacingLeft=4;spacingRight=4;overflow=hidden;rotatable=0;points=[[0,0.5],[1,0.5]];portConstraint=eastwest;" vertex="1" parent="zkfFHV4jXpPFQw0GAbJ--0">
          <mxGeometry y="60" width="160" height="26" as="geometry" />
        </mxCell>
        <mxCell id="MLmQVyr9P93g7gufr7wJ-39" value="+" style="text;align=left;verticalAlign=top;spacingLeft=4;spacingRight=4;overflow=hidden;rotatable=0;points=[[0,0.5],[1,0.5]];portConstraint=eastwest;" vertex="1" parent="zkfFHV4jXpPFQw0GAbJ--0">
          <mxGeometry y="86" width="160" height="26" as="geometry" />
        </mxCell>
        <mxCell id="MLmQVyr9P93g7gufr7wJ-501" style="edgeStyle=orthogonalEdgeStyle;rounded=0;orthogonalLoop=1;jettySize=auto;html=1;entryX=0.5;entryY=0;entryDx=0;entryDy=0;endArrow=open;endFill=0;" edge="1" parent="WIyWlLk6GJQsqaUBKTNV-1" source="zkfFHV4jXpPFQw0GAbJ--6" target="MLmQVyr9P93g7gufr7wJ-484">
          <mxGeometry relative="1" as="geometry" />
        </mxCell>
        <mxCell id="zkfFHV4jXpPFQw0GAbJ--6" value="Pasajero" style="swimlane;fontStyle=0;align=center;verticalAlign=top;childLayout=stackLayout;horizontal=1;startSize=26;horizontalStack=0;resizeParent=1;resizeLast=0;collapsible=1;marginBottom=0;rounded=0;shadow=0;strokeWidth=1;" parent="WIyWlLk6GJQsqaUBKTNV-1" vertex="1">
          <mxGeometry x="-590" y="410" width="460" height="580" as="geometry">
            <mxRectangle x="130" y="380" width="160" height="26" as="alternateBounds" />
          </mxGeometry>
        </mxCell>
        <mxCell id="zkfFHV4jXpPFQw0GAbJ--7" value="- nombre: String" style="text;align=left;verticalAlign=top;spacingLeft=4;spacingRight=4;overflow=hidden;rotatable=0;points=[[0,0.5],[1,0.5]];portConstraint=eastwest;" parent="zkfFHV4jXpPFQw0GAbJ--6" vertex="1">
          <mxGeometry y="26" width="460" height="26" as="geometry" />
        </mxCell>
        <mxCell id="MLmQVyr9P93g7gufr7wJ-67" value="- telefono : int" style="text;align=left;verticalAlign=top;spacingLeft=4;spacingRight=4;overflow=hidden;rotatable=0;points=[[0,0.5],[1,0.5]];portConstraint=eastwest;" vertex="1" parent="zkfFHV4jXpPFQw0GAbJ--6">
          <mxGeometry y="52" width="460" height="26" as="geometry" />
        </mxCell>
        <mxCell id="MLmQVyr9P93g7gufr7wJ-68" value="- correo : String" style="text;align=left;verticalAlign=top;spacingLeft=4;spacingRight=4;overflow=hidden;rotatable=0;points=[[0,0.5],[1,0.5]];portConstraint=eastwest;" vertex="1" parent="zkfFHV4jXpPFQw0GAbJ--6">
          <mxGeometry y="78" width="460" height="26" as="geometry" />
        </mxCell>
        <mxCell id="zkfFHV4jXpPFQw0GAbJ--8" value="- calificacion: float" style="text;align=left;verticalAlign=top;spacingLeft=4;spacingRight=4;overflow=hidden;rotatable=0;points=[[0,0.5],[1,0.5]];portConstraint=eastwest;rounded=0;shadow=0;html=0;" parent="zkfFHV4jXpPFQw0GAbJ--6" vertex="1">
          <mxGeometry y="104" width="460" height="26" as="geometry" />
        </mxCell>
        <mxCell id="MLmQVyr9P93g7gufr7wJ-361" value="- calificaciones: list&lt;int&gt;" style="text;align=left;verticalAlign=top;spacingLeft=4;spacingRight=4;overflow=hidden;rotatable=0;points=[[0,0.5],[1,0.5]];portConstraint=eastwest;rounded=0;shadow=0;html=0;" vertex="1" parent="zkfFHV4jXpPFQw0GAbJ--6">
          <mxGeometry y="130" width="460" height="26" as="geometry" />
        </mxCell>
        <mxCell id="MLmQVyr9P93g7gufr7wJ-64" value="- metodoDePago : String" style="text;align=left;verticalAlign=top;spacingLeft=4;spacingRight=4;overflow=hidden;rotatable=0;points=[[0,0.5],[1,0.5]];portConstraint=eastwest;rounded=0;shadow=0;html=0;" vertex="1" parent="zkfFHV4jXpPFQw0GAbJ--6">
          <mxGeometry y="156" width="460" height="26" as="geometry" />
        </mxCell>
        <mxCell id="MLmQVyr9P93g7gufr7wJ-65" value="- ubicacion : String" style="text;align=left;verticalAlign=top;spacingLeft=4;spacingRight=4;overflow=hidden;rotatable=0;points=[[0,0.5],[1,0.5]];portConstraint=eastwest;rounded=0;shadow=0;html=0;" vertex="1" parent="zkfFHV4jXpPFQw0GAbJ--6">
          <mxGeometry y="182" width="460" height="26" as="geometry" />
        </mxCell>
        <mxCell id="MLmQVyr9P93g7gufr7wJ-452" value="- ubicacion : String" style="text;align=left;verticalAlign=top;spacingLeft=4;spacingRight=4;overflow=hidden;rotatable=0;points=[[0,0.5],[1,0.5]];portConstraint=eastwest;rounded=0;shadow=0;html=0;" vertex="1" parent="zkfFHV4jXpPFQw0GAbJ--6">
          <mxGeometry y="208" width="460" height="26" as="geometry" />
        </mxCell>
        <mxCell id="MLmQVyr9P93g7gufr7wJ-353" value="- ciudad: String" style="text;align=left;verticalAlign=top;spacingLeft=4;spacingRight=4;overflow=hidden;rotatable=0;points=[[0,0.5],[1,0.5]];portConstraint=eastwest;rounded=0;shadow=0;html=0;" vertex="1" parent="zkfFHV4jXpPFQw0GAbJ--6">
          <mxGeometry y="234" width="460" height="26" as="geometry" />
        </mxCell>
        <mxCell id="zkfFHV4jXpPFQw0GAbJ--9" value="" style="line;html=1;strokeWidth=1;align=left;verticalAlign=middle;spacingTop=-1;spacingLeft=3;spacingRight=3;rotatable=0;labelPosition=right;points=[];portConstraint=eastwest;" parent="zkfFHV4jXpPFQw0GAbJ--6" vertex="1">
          <mxGeometry y="260" width="460" height="8" as="geometry" />
        </mxCell>
        <mxCell id="zkfFHV4jXpPFQw0GAbJ--11" value="+ Pasajero(String nombre, int telefono, String correo)" style="text;align=left;verticalAlign=top;spacingLeft=4;spacingRight=4;overflow=hidden;rotatable=0;points=[[0,0.5],[1,0.5]];portConstraint=eastwest;" parent="zkfFHV4jXpPFQw0GAbJ--6" vertex="1">
          <mxGeometry y="268" width="460" height="26" as="geometry" />
        </mxCell>
        <mxCell id="MLmQVyr9P93g7gufr7wJ-69" value="+ getNombre(): String" style="text;align=left;verticalAlign=top;spacingLeft=4;spacingRight=4;overflow=hidden;rotatable=0;points=[[0,0.5],[1,0.5]];portConstraint=eastwest;" vertex="1" parent="zkfFHV4jXpPFQw0GAbJ--6">
          <mxGeometry y="294" width="460" height="26" as="geometry" />
        </mxCell>
        <mxCell id="MLmQVyr9P93g7gufr7wJ-72" value="+ getTelofono(): int" style="text;align=left;verticalAlign=top;spacingLeft=4;spacingRight=4;overflow=hidden;rotatable=0;points=[[0,0.5],[1,0.5]];portConstraint=eastwest;" vertex="1" parent="zkfFHV4jXpPFQw0GAbJ--6">
          <mxGeometry y="320" width="460" height="26" as="geometry" />
        </mxCell>
        <mxCell id="MLmQVyr9P93g7gufr7wJ-71" value="+ getCorreo(): String" style="text;align=left;verticalAlign=top;spacingLeft=4;spacingRight=4;overflow=hidden;rotatable=0;points=[[0,0.5],[1,0.5]];portConstraint=eastwest;" vertex="1" parent="zkfFHV4jXpPFQw0GAbJ--6">
          <mxGeometry y="346" width="460" height="26" as="geometry" />
        </mxCell>
        <mxCell id="MLmQVyr9P93g7gufr7wJ-322" value="+ getCalificacion(): float" style="text;align=left;verticalAlign=top;spacingLeft=4;spacingRight=4;overflow=hidden;rotatable=0;points=[[0,0.5],[1,0.5]];portConstraint=eastwest;" vertex="1" parent="zkfFHV4jXpPFQw0GAbJ--6">
          <mxGeometry y="372" width="460" height="26" as="geometry" />
        </mxCell>
        <mxCell id="MLmQVyr9P93g7gufr7wJ-344" value="+ getUbicacion(): String" style="text;align=left;verticalAlign=top;spacingLeft=4;spacingRight=4;overflow=hidden;rotatable=0;points=[[0,0.5],[1,0.5]];portConstraint=eastwest;" vertex="1" parent="zkfFHV4jXpPFQw0GAbJ--6">
          <mxGeometry y="398" width="460" height="26" as="geometry" />
        </mxCell>
        <mxCell id="MLmQVyr9P93g7gufr7wJ-70" value="+ getViajeEnCurso(): Viaje" style="text;align=left;verticalAlign=top;spacingLeft=4;spacingRight=4;overflow=hidden;rotatable=0;points=[[0,0.5],[1,0.5]];portConstraint=eastwest;" vertex="1" parent="zkfFHV4jXpPFQw0GAbJ--6">
          <mxGeometry y="424" width="460" height="26" as="geometry" />
        </mxCell>
        <mxCell id="MLmQVyr9P93g7gufr7wJ-301" value="+ iniciarViaje(String destino, String ubicacion, String metodoDePago, String ciudad)" style="text;align=left;verticalAlign=top;spacingLeft=4;spacingRight=4;overflow=hidden;rotatable=0;points=[[0,0.5],[1,0.5]];portConstraint=eastwest;" vertex="1" parent="zkfFHV4jXpPFQw0GAbJ--6">
          <mxGeometry y="450" width="460" height="26" as="geometry" />
        </mxCell>
        <mxCell id="MLmQVyr9P93g7gufr7wJ-346" value="- cancelarViaje(): void" style="text;align=left;verticalAlign=top;spacingLeft=4;spacingRight=4;overflow=hidden;rotatable=0;points=[[0,0.5],[1,0.5]];portConstraint=eastwest;" vertex="1" parent="zkfFHV4jXpPFQw0GAbJ--6">
          <mxGeometry y="476" width="460" height="26" as="geometry" />
        </mxCell>
        <mxCell id="MLmQVyr9P93g7gufr7wJ-410" value="+ reportarProblemaEnViaje (list&lt;Viaje&gt; viajes, String destino, String reporte): void&#xa;:" style="text;align=left;verticalAlign=top;spacingLeft=4;spacingRight=4;overflow=hidden;rotatable=0;points=[[0,0.5],[1,0.5]];portConstraint=eastwest;" vertex="1" parent="zkfFHV4jXpPFQw0GAbJ--6">
          <mxGeometry y="502" width="460" height="26" as="geometry" />
        </mxCell>
        <mxCell id="zkfFHV4jXpPFQw0GAbJ--17" value="Viaje" style="swimlane;fontStyle=0;align=center;verticalAlign=top;childLayout=stackLayout;horizontal=1;startSize=26;horizontalStack=0;resizeParent=1;resizeLast=0;collapsible=1;marginBottom=0;rounded=0;shadow=0;strokeWidth=1;" parent="WIyWlLk6GJQsqaUBKTNV-1" vertex="1">
          <mxGeometry x="130" y="410" width="350" height="580" as="geometry">
            <mxRectangle x="550" y="140" width="160" height="26" as="alternateBounds" />
          </mxGeometry>
        </mxCell>
        <mxCell id="zkfFHV4jXpPFQw0GAbJ--18" value="- destino: String" style="text;align=left;verticalAlign=top;spacingLeft=4;spacingRight=4;overflow=hidden;rotatable=0;points=[[0,0.5],[1,0.5]];portConstraint=eastwest;" parent="zkfFHV4jXpPFQw0GAbJ--17" vertex="1">
          <mxGeometry y="26" width="350" height="26" as="geometry" />
        </mxCell>
        <mxCell id="MLmQVyr9P93g7gufr7wJ-354" value="- cantidadDeDestinos: int" style="text;align=left;verticalAlign=top;spacingLeft=4;spacingRight=4;overflow=hidden;rotatable=0;points=[[0,0.5],[1,0.5]];portConstraint=eastwest;" vertex="1" parent="zkfFHV4jXpPFQw0GAbJ--17">
          <mxGeometry y="52" width="350" height="26" as="geometry" />
        </mxCell>
        <mxCell id="zkfFHV4jXpPFQw0GAbJ--19" value="- ubicacionInicial: String" style="text;align=left;verticalAlign=top;spacingLeft=4;spacingRight=4;overflow=hidden;rotatable=0;points=[[0,0.5],[1,0.5]];portConstraint=eastwest;rounded=0;shadow=0;html=0;" parent="zkfFHV4jXpPFQw0GAbJ--17" vertex="1">
          <mxGeometry y="78" width="350" height="26" as="geometry" />
        </mxCell>
        <mxCell id="zkfFHV4jXpPFQw0GAbJ--20" value="- pasajeros: list&lt;Pasajero&gt;" style="text;align=left;verticalAlign=top;spacingLeft=4;spacingRight=4;overflow=hidden;rotatable=0;points=[[0,0.5],[1,0.5]];portConstraint=eastwest;rounded=0;shadow=0;html=0;" parent="zkfFHV4jXpPFQw0GAbJ--17" vertex="1">
          <mxGeometry y="104" width="350" height="26" as="geometry" />
        </mxCell>
        <mxCell id="zkfFHV4jXpPFQw0GAbJ--21" value="- conductor: Conductor" style="text;align=left;verticalAlign=top;spacingLeft=4;spacingRight=4;overflow=hidden;rotatable=0;points=[[0,0.5],[1,0.5]];portConstraint=eastwest;rounded=0;shadow=0;html=0;" parent="zkfFHV4jXpPFQw0GAbJ--17" vertex="1">
          <mxGeometry y="130" width="350" height="26" as="geometry" />
        </mxCell>
        <mxCell id="MLmQVyr9P93g7gufr7wJ-474" value="" style="endArrow=open;html=1;rounded=0;entryX=-0.004;entryY=0.982;entryDx=0;entryDy=0;endFill=0;exitX=-0.008;exitY=0.781;exitDx=0;exitDy=0;exitPerimeter=0;entryPerimeter=0;" edge="1" parent="zkfFHV4jXpPFQw0GAbJ--17" source="MLmQVyr9P93g7gufr7wJ-424">
          <mxGeometry width="50" height="50" relative="1" as="geometry">
            <mxPoint x="92.32000000000005" y="150.86000000000013" as="sourcePoint" />
            <mxPoint x="349.9999999999999" y="150.00199999999995" as="targetPoint" />
          </mxGeometry>
        </mxCell>
        <mxCell id="zkfFHV4jXpPFQw0GAbJ--22" value="- vehiculo: Vehiculo" style="text;align=left;verticalAlign=top;spacingLeft=4;spacingRight=4;overflow=hidden;rotatable=0;points=[[0,0.5],[1,0.5]];portConstraint=eastwest;rounded=0;shadow=0;html=0;" parent="zkfFHV4jXpPFQw0GAbJ--17" vertex="1">
          <mxGeometry y="156" width="350" height="26" as="geometry" />
        </mxCell>
        <mxCell id="MLmQVyr9P93g7gufr7wJ-349" value="- costo: int" style="text;align=left;verticalAlign=top;spacingLeft=4;spacingRight=4;overflow=hidden;rotatable=0;points=[[0,0.5],[1,0.5]];portConstraint=eastwest;rounded=0;shadow=0;html=0;" vertex="1" parent="zkfFHV4jXpPFQw0GAbJ--17">
          <mxGeometry y="182" width="350" height="26" as="geometry" />
        </mxCell>
        <mxCell id="MLmQVyr9P93g7gufr7wJ-350" value="- distanciaEfectiva: int" style="text;align=left;verticalAlign=top;spacingLeft=4;spacingRight=4;overflow=hidden;rotatable=0;points=[[0,0.5],[1,0.5]];portConstraint=eastwest;rounded=0;shadow=0;html=0;" vertex="1" parent="zkfFHV4jXpPFQw0GAbJ--17">
          <mxGeometry y="208" width="350" height="26" as="geometry" />
        </mxCell>
        <mxCell id="MLmQVyr9P93g7gufr7wJ-351" value="- tarifa: double" style="text;align=left;verticalAlign=top;spacingLeft=4;spacingRight=4;overflow=hidden;rotatable=0;points=[[0,0.5],[1,0.5]];portConstraint=eastwest;rounded=0;shadow=0;html=0;" vertex="1" parent="zkfFHV4jXpPFQw0GAbJ--17">
          <mxGeometry y="234" width="350" height="26" as="geometry" />
        </mxCell>
        <mxCell id="MLmQVyr9P93g7gufr7wJ-352" value="- ciudad: String" style="text;align=left;verticalAlign=top;spacingLeft=4;spacingRight=4;overflow=hidden;rotatable=0;points=[[0,0.5],[1,0.5]];portConstraint=eastwest;rounded=0;shadow=0;html=0;" vertex="1" parent="zkfFHV4jXpPFQw0GAbJ--17">
          <mxGeometry y="260" width="350" height="26" as="geometry" />
        </mxCell>
        <mxCell id="MLmQVyr9P93g7gufr7wJ-357" value="- estadoViaje: String" style="text;align=left;verticalAlign=top;spacingLeft=4;spacingRight=4;overflow=hidden;rotatable=0;points=[[0,0.5],[1,0.5]];portConstraint=eastwest;rounded=0;shadow=0;html=0;" vertex="1" parent="zkfFHV4jXpPFQw0GAbJ--17">
          <mxGeometry y="286" width="350" height="26" as="geometry" />
        </mxCell>
        <mxCell id="MLmQVyr9P93g7gufr7wJ-362" value="- metodoDePago: String" style="text;align=left;verticalAlign=top;spacingLeft=4;spacingRight=4;overflow=hidden;rotatable=0;points=[[0,0.5],[1,0.5]];portConstraint=eastwest;rounded=0;shadow=0;html=0;" vertex="1" parent="zkfFHV4jXpPFQw0GAbJ--17">
          <mxGeometry y="312" width="350" height="26" as="geometry" />
        </mxCell>
        <mxCell id="MLmQVyr9P93g7gufr7wJ-363" value="- calaficacionAConductor: list&lt;int&gt;" style="text;align=left;verticalAlign=top;spacingLeft=4;spacingRight=4;overflow=hidden;rotatable=0;points=[[0,0.5],[1,0.5]];portConstraint=eastwest;rounded=0;shadow=0;html=0;" vertex="1" parent="zkfFHV4jXpPFQw0GAbJ--17">
          <mxGeometry y="338" width="350" height="26" as="geometry" />
        </mxCell>
        <mxCell id="MLmQVyr9P93g7gufr7wJ-364" value="- calificacionAPasajero: int" style="text;align=left;verticalAlign=top;spacingLeft=4;spacingRight=4;overflow=hidden;rotatable=0;points=[[0,0.5],[1,0.5]];portConstraint=eastwest;rounded=0;shadow=0;html=0;" vertex="1" parent="zkfFHV4jXpPFQw0GAbJ--17">
          <mxGeometry y="364" width="350" height="26" as="geometry" />
        </mxCell>
        <mxCell id="zkfFHV4jXpPFQw0GAbJ--23" value="" style="line;html=1;strokeWidth=1;align=left;verticalAlign=middle;spacingTop=-1;spacingLeft=3;spacingRight=3;rotatable=0;labelPosition=right;points=[];portConstraint=eastwest;" parent="zkfFHV4jXpPFQw0GAbJ--17" vertex="1">
          <mxGeometry y="390" width="350" height="8" as="geometry" />
        </mxCell>
        <mxCell id="MLmQVyr9P93g7gufr7wJ-356" value="+ Viaje (Pasajero pasajero, String destino)" style="text;align=left;verticalAlign=top;spacingLeft=4;spacingRight=4;overflow=hidden;rotatable=0;points=[[0,0.5],[1,0.5]];portConstraint=eastwest;" vertex="1" parent="zkfFHV4jXpPFQw0GAbJ--17">
          <mxGeometry y="398" width="350" height="26" as="geometry" />
        </mxCell>
        <mxCell id="zkfFHV4jXpPFQw0GAbJ--24" value="+añandirPasajero(Pasajero pasajero): void" style="text;align=left;verticalAlign=top;spacingLeft=4;spacingRight=4;overflow=hidden;rotatable=0;points=[[0,0.5],[1,0.5]];portConstraint=eastwest;" parent="zkfFHV4jXpPFQw0GAbJ--17" vertex="1">
          <mxGeometry y="424" width="350" height="26" as="geometry" />
        </mxCell>
        <mxCell id="zkfFHV4jXpPFQw0GAbJ--25" value="+setConductor(Conductor conductor): void" style="text;align=left;verticalAlign=top;spacingLeft=4;spacingRight=4;overflow=hidden;rotatable=0;points=[[0,0.5],[1,0.5]];portConstraint=eastwest;" parent="zkfFHV4jXpPFQw0GAbJ--17" vertex="1">
          <mxGeometry y="450" width="350" height="26" as="geometry" />
        </mxCell>
        <mxCell id="MLmQVyr9P93g7gufr7wJ-358" value="+ getEstadoViaje(): String" style="text;align=left;verticalAlign=top;spacingLeft=4;spacingRight=4;overflow=hidden;rotatable=0;points=[[0,0.5],[1,0.5]];portConstraint=eastwest;" vertex="1" parent="zkfFHV4jXpPFQw0GAbJ--17">
          <mxGeometry y="476" width="350" height="26" as="geometry" />
        </mxCell>
        <mxCell id="MLmQVyr9P93g7gufr7wJ-359" value="+ setEstadoViaje():  void" style="text;align=left;verticalAlign=top;spacingLeft=4;spacingRight=4;overflow=hidden;rotatable=0;points=[[0,0.5],[1,0.5]];portConstraint=eastwest;" vertex="1" parent="zkfFHV4jXpPFQw0GAbJ--17">
          <mxGeometry y="502" width="350" height="26" as="geometry" />
        </mxCell>
        <mxCell id="MLmQVyr9P93g7gufr7wJ-465" value="+cancelarViaje(): void" style="text;align=left;verticalAlign=top;spacingLeft=4;spacingRight=4;overflow=hidden;rotatable=0;points=[[0,0.5],[1,0.5]];portConstraint=eastwest;" vertex="1" parent="zkfFHV4jXpPFQw0GAbJ--17">
          <mxGeometry y="528" width="350" height="26" as="geometry" />
        </mxCell>
        <mxCell id="MLmQVyr9P93g7gufr7wJ-478" value="+ buscarConductor(): Conductor" style="text;align=left;verticalAlign=top;spacingLeft=4;spacingRight=4;overflow=hidden;rotatable=0;points=[[0,0.5],[1,0.5]];portConstraint=eastwest;" vertex="1" parent="zkfFHV4jXpPFQw0GAbJ--17">
          <mxGeometry y="554" width="350" height="26" as="geometry" />
        </mxCell>
        <mxCell id="MLmQVyr9P93g7gufr7wJ-41" value="UB*R" style="swimlane;fontStyle=0;align=center;verticalAlign=top;childLayout=stackLayout;horizontal=1;startSize=26;horizontalStack=0;resizeParent=1;resizeLast=0;collapsible=1;marginBottom=0;rounded=0;shadow=0;strokeWidth=1;" vertex="1" parent="WIyWlLk6GJQsqaUBKTNV-1">
          <mxGeometry x="40" y="40" width="630" height="242" as="geometry">
            <mxRectangle x="550" y="140" width="160" height="26" as="alternateBounds" />
          </mxGeometry>
        </mxCell>
        <mxCell id="MLmQVyr9P93g7gufr7wJ-47" value="" style="line;html=1;strokeWidth=1;align=left;verticalAlign=middle;spacingTop=-1;spacingLeft=3;spacingRight=3;rotatable=0;labelPosition=right;points=[];portConstraint=eastwest;" vertex="1" parent="MLmQVyr9P93g7gufr7wJ-41">
          <mxGeometry y="26" width="630" height="8" as="geometry" />
        </mxCell>
        <mxCell id="MLmQVyr9P93g7gufr7wJ-48" value="+ UB*R()" style="text;align=left;verticalAlign=top;spacingLeft=4;spacingRight=4;overflow=hidden;rotatable=0;points=[[0,0.5],[1,0.5]];portConstraint=eastwest;" vertex="1" parent="MLmQVyr9P93g7gufr7wJ-41">
          <mxGeometry y="34" width="630" height="26" as="geometry" />
        </mxCell>
        <mxCell id="MLmQVyr9P93g7gufr7wJ-365" value="+ crearCuentaPasajer(String nombre, int telefono, String correo): void" style="text;align=left;verticalAlign=top;spacingLeft=4;spacingRight=4;overflow=hidden;rotatable=0;points=[[0,0.5],[1,0.5]];portConstraint=eastwest;" vertex="1" parent="MLmQVyr9P93g7gufr7wJ-41">
          <mxGeometry y="60" width="630" height="26" as="geometry" />
        </mxCell>
        <mxCell id="MLmQVyr9P93g7gufr7wJ-369" value="+ crearCuentaConductor(String nombre, int telefono, String correo): void" style="text;align=left;verticalAlign=top;spacingLeft=4;spacingRight=4;overflow=hidden;rotatable=0;points=[[0,0.5],[1,0.5]];portConstraint=eastwest;" vertex="1" parent="MLmQVyr9P93g7gufr7wJ-41">
          <mxGeometry y="86" width="630" height="26" as="geometry" />
        </mxCell>
        <mxCell id="MLmQVyr9P93g7gufr7wJ-467" value="+ crearAdmin(String nombre, String correo): void" style="text;align=left;verticalAlign=top;spacingLeft=4;spacingRight=4;overflow=hidden;rotatable=0;points=[[0,0.5],[1,0.5]];portConstraint=eastwest;" vertex="1" parent="MLmQVyr9P93g7gufr7wJ-41">
          <mxGeometry y="112" width="630" height="26" as="geometry" />
        </mxCell>
        <mxCell id="MLmQVyr9P93g7gufr7wJ-370" value="+ aprovarVehiculo(list&lt;Vehiculo&gt; vehiculos); void" style="text;align=left;verticalAlign=top;spacingLeft=4;spacingRight=4;overflow=hidden;rotatable=0;points=[[0,0.5],[1,0.5]];portConstraint=eastwest;fontStyle=4" vertex="1" parent="MLmQVyr9P93g7gufr7wJ-41">
          <mxGeometry y="138" width="630" height="26" as="geometry" />
        </mxCell>
        <mxCell id="MLmQVyr9P93g7gufr7wJ-466" value="+buscarAdminDisponible(list&lt;Admin&gt; administradores): Admin" style="text;align=left;verticalAlign=top;spacingLeft=4;spacingRight=4;overflow=hidden;rotatable=0;points=[[0,0.5],[1,0.5]];portConstraint=eastwest;" vertex="1" parent="MLmQVyr9P93g7gufr7wJ-41">
          <mxGeometry y="164" width="630" height="26" as="geometry" />
        </mxCell>
        <mxCell id="MLmQVyr9P93g7gufr7wJ-479" value="+ buscarConductorDisponible(list&lt;Conducores&gt; conductores): Conductor" style="text;align=left;verticalAlign=top;spacingLeft=4;spacingRight=4;overflow=hidden;rotatable=0;points=[[0,0.5],[1,0.5]];portConstraint=eastwest;fontStyle=4" vertex="1" parent="MLmQVyr9P93g7gufr7wJ-41">
          <mxGeometry y="190" width="630" height="26" as="geometry" />
        </mxCell>
        <mxCell id="MLmQVyr9P93g7gufr7wJ-480" value="+ solucionarReporte(String reporte): void" style="text;align=left;verticalAlign=top;spacingLeft=4;spacingRight=4;overflow=hidden;rotatable=0;points=[[0,0.5],[1,0.5]];portConstraint=eastwest;fontStyle=4" vertex="1" parent="MLmQVyr9P93g7gufr7wJ-41">
          <mxGeometry y="216" width="630" height="26" as="geometry" />
        </mxCell>
        <mxCell id="MLmQVyr9P93g7gufr7wJ-56" value="" style="endArrow=open;html=1;rounded=0;entryX=0.5;entryY=0;entryDx=0;entryDy=0;endFill=0;" edge="1" parent="WIyWlLk6GJQsqaUBKTNV-1" target="zkfFHV4jXpPFQw0GAbJ--6">
          <mxGeometry relative="1" as="geometry">
            <mxPoint x="40" y="240" as="sourcePoint" />
            <mxPoint x="402" y="380" as="targetPoint" />
            <Array as="points">
              <mxPoint x="-360" y="240" />
            </Array>
          </mxGeometry>
        </mxCell>
        <mxCell id="MLmQVyr9P93g7gufr7wJ-59" value="* &lt;br&gt;Pasajeros" style="edgeLabel;resizable=0;html=1;align=right;verticalAlign=bottom;" connectable="0" vertex="1" parent="MLmQVyr9P93g7gufr7wJ-56">
          <mxGeometry x="1" relative="1" as="geometry">
            <mxPoint x="-2" y="-10" as="offset" />
          </mxGeometry>
        </mxCell>
        <mxCell id="MLmQVyr9P93g7gufr7wJ-304" value="" style="endArrow=open;html=1;rounded=0;endFill=0;exitX=1;exitY=0.5;exitDx=0;exitDy=0;entryX=0.102;entryY=0.001;entryDx=0;entryDy=0;entryPerimeter=0;" edge="1" parent="WIyWlLk6GJQsqaUBKTNV-1" source="MLmQVyr9P93g7gufr7wJ-41" target="MLmQVyr9P93g7gufr7wJ-306">
          <mxGeometry relative="1" as="geometry">
            <mxPoint x="610" y="250" as="sourcePoint" />
            <mxPoint x="730" y="407" as="targetPoint" />
            <Array as="points">
              <mxPoint x="730" y="160" />
              <mxPoint x="730" y="360" />
            </Array>
          </mxGeometry>
        </mxCell>
        <mxCell id="MLmQVyr9P93g7gufr7wJ-305" value="* &lt;br&gt;Conductores" style="edgeLabel;resizable=0;html=1;align=right;verticalAlign=bottom;" connectable="0" vertex="1" parent="MLmQVyr9P93g7gufr7wJ-304">
          <mxGeometry x="1" relative="1" as="geometry">
            <mxPoint x="-2" y="-10" as="offset" />
          </mxGeometry>
        </mxCell>
        <mxCell id="MLmQVyr9P93g7gufr7wJ-306" value="Conductor" style="swimlane;fontStyle=0;align=center;verticalAlign=top;childLayout=stackLayout;horizontal=1;startSize=26;horizontalStack=0;resizeParent=1;resizeLast=0;collapsible=1;marginBottom=0;rounded=0;shadow=0;strokeWidth=1;" vertex="1" parent="WIyWlLk6GJQsqaUBKTNV-1">
          <mxGeometry x="690" y="410" width="395" height="684" as="geometry">
            <mxRectangle x="130" y="380" width="160" height="26" as="alternateBounds" />
          </mxGeometry>
        </mxCell>
        <mxCell id="MLmQVyr9P93g7gufr7wJ-307" value="- nombre: String" style="text;align=left;verticalAlign=top;spacingLeft=4;spacingRight=4;overflow=hidden;rotatable=0;points=[[0,0.5],[1,0.5]];portConstraint=eastwest;" vertex="1" parent="MLmQVyr9P93g7gufr7wJ-306">
          <mxGeometry y="26" width="395" height="26" as="geometry" />
        </mxCell>
        <mxCell id="MLmQVyr9P93g7gufr7wJ-308" value="- telefono : int" style="text;align=left;verticalAlign=top;spacingLeft=4;spacingRight=4;overflow=hidden;rotatable=0;points=[[0,0.5],[1,0.5]];portConstraint=eastwest;" vertex="1" parent="MLmQVyr9P93g7gufr7wJ-306">
          <mxGeometry y="52" width="395" height="26" as="geometry" />
        </mxCell>
        <mxCell id="MLmQVyr9P93g7gufr7wJ-309" value="- correo : String" style="text;align=left;verticalAlign=top;spacingLeft=4;spacingRight=4;overflow=hidden;rotatable=0;points=[[0,0.5],[1,0.5]];portConstraint=eastwest;" vertex="1" parent="MLmQVyr9P93g7gufr7wJ-306">
          <mxGeometry y="78" width="395" height="26" as="geometry" />
        </mxCell>
        <mxCell id="MLmQVyr9P93g7gufr7wJ-425" value="- licencia : int" style="text;align=left;verticalAlign=top;spacingLeft=4;spacingRight=4;overflow=hidden;rotatable=0;points=[[0,0.5],[1,0.5]];portConstraint=eastwest;" vertex="1" parent="MLmQVyr9P93g7gufr7wJ-306">
          <mxGeometry y="104" width="395" height="26" as="geometry" />
        </mxCell>
        <mxCell id="MLmQVyr9P93g7gufr7wJ-424" value="- vehiculoAUsar: Vehiculo" style="text;align=left;verticalAlign=top;spacingLeft=4;spacingRight=4;overflow=hidden;rotatable=0;points=[[0,0.5],[1,0.5]];portConstraint=eastwest;" vertex="1" parent="MLmQVyr9P93g7gufr7wJ-306">
          <mxGeometry y="130" width="395" height="26" as="geometry" />
        </mxCell>
        <mxCell id="MLmQVyr9P93g7gufr7wJ-310" value="- calificacion: float" style="text;align=left;verticalAlign=top;spacingLeft=4;spacingRight=4;overflow=hidden;rotatable=0;points=[[0,0.5],[1,0.5]];portConstraint=eastwest;rounded=0;shadow=0;html=0;" vertex="1" parent="MLmQVyr9P93g7gufr7wJ-306">
          <mxGeometry y="156" width="395" height="26" as="geometry" />
        </mxCell>
        <mxCell id="MLmQVyr9P93g7gufr7wJ-360" value="- calificaciones: list&lt;int&gt;" style="text;align=left;verticalAlign=top;spacingLeft=4;spacingRight=4;overflow=hidden;rotatable=0;points=[[0,0.5],[1,0.5]];portConstraint=eastwest;rounded=0;shadow=0;html=0;" vertex="1" parent="MLmQVyr9P93g7gufr7wJ-306">
          <mxGeometry y="182" width="395" height="26" as="geometry" />
        </mxCell>
        <mxCell id="MLmQVyr9P93g7gufr7wJ-340" value="- viajes: int" style="text;align=left;verticalAlign=top;spacingLeft=4;spacingRight=4;overflow=hidden;rotatable=0;points=[[0,0.5],[1,0.5]];portConstraint=eastwest;rounded=0;shadow=0;html=0;" vertex="1" parent="MLmQVyr9P93g7gufr7wJ-306">
          <mxGeometry y="208" width="395" height="26" as="geometry" />
        </mxCell>
        <mxCell id="MLmQVyr9P93g7gufr7wJ-341" value="- deuda: int" style="text;align=left;verticalAlign=top;spacingLeft=4;spacingRight=4;overflow=hidden;rotatable=0;points=[[0,0.5],[1,0.5]];portConstraint=eastwest;rounded=0;shadow=0;html=0;" vertex="1" parent="MLmQVyr9P93g7gufr7wJ-306">
          <mxGeometry y="234" width="395" height="26" as="geometry" />
        </mxCell>
        <mxCell id="MLmQVyr9P93g7gufr7wJ-312" value="- metodoDePago : String" style="text;align=left;verticalAlign=top;spacingLeft=4;spacingRight=4;overflow=hidden;rotatable=0;points=[[0,0.5],[1,0.5]];portConstraint=eastwest;rounded=0;shadow=0;html=0;" vertex="1" parent="MLmQVyr9P93g7gufr7wJ-306">
          <mxGeometry y="260" width="395" height="26" as="geometry" />
        </mxCell>
        <mxCell id="MLmQVyr9P93g7gufr7wJ-313" value="- ubicacion : String" style="text;align=left;verticalAlign=top;spacingLeft=4;spacingRight=4;overflow=hidden;rotatable=0;points=[[0,0.5],[1,0.5]];portConstraint=eastwest;rounded=0;shadow=0;html=0;" vertex="1" parent="MLmQVyr9P93g7gufr7wJ-306">
          <mxGeometry y="286" width="395" height="26" as="geometry" />
        </mxCell>
        <mxCell id="MLmQVyr9P93g7gufr7wJ-314" value="- tarjetasRegistradas: list&lt;Tarjeta&gt;" style="text;align=left;verticalAlign=top;spacingLeft=4;spacingRight=4;overflow=hidden;rotatable=0;points=[[0,0.5],[1,0.5]];portConstraint=eastwest;rounded=0;shadow=0;html=0;" vertex="1" parent="MLmQVyr9P93g7gufr7wJ-306">
          <mxGeometry y="312" width="395" height="26" as="geometry" />
        </mxCell>
        <mxCell id="MLmQVyr9P93g7gufr7wJ-315" value="" style="line;html=1;strokeWidth=1;align=left;verticalAlign=middle;spacingTop=-1;spacingLeft=3;spacingRight=3;rotatable=0;labelPosition=right;points=[];portConstraint=eastwest;" vertex="1" parent="MLmQVyr9P93g7gufr7wJ-306">
          <mxGeometry y="338" width="395" height="8" as="geometry" />
        </mxCell>
        <mxCell id="MLmQVyr9P93g7gufr7wJ-316" value="+ Conductor(String nombre, int telefono, String correo)" style="text;align=left;verticalAlign=top;spacingLeft=4;spacingRight=4;overflow=hidden;rotatable=0;points=[[0,0.5],[1,0.5]];portConstraint=eastwest;" vertex="1" parent="MLmQVyr9P93g7gufr7wJ-306">
          <mxGeometry y="346" width="395" height="26" as="geometry" />
        </mxCell>
        <mxCell id="MLmQVyr9P93g7gufr7wJ-317" value="+ getNombre(): String" style="text;align=left;verticalAlign=top;spacingLeft=4;spacingRight=4;overflow=hidden;rotatable=0;points=[[0,0.5],[1,0.5]];portConstraint=eastwest;" vertex="1" parent="MLmQVyr9P93g7gufr7wJ-306">
          <mxGeometry y="372" width="395" height="26" as="geometry" />
        </mxCell>
        <mxCell id="MLmQVyr9P93g7gufr7wJ-318" value="+ getTelofono(): int" style="text;align=left;verticalAlign=top;spacingLeft=4;spacingRight=4;overflow=hidden;rotatable=0;points=[[0,0.5],[1,0.5]];portConstraint=eastwest;" vertex="1" parent="MLmQVyr9P93g7gufr7wJ-306">
          <mxGeometry y="398" width="395" height="26" as="geometry" />
        </mxCell>
        <mxCell id="MLmQVyr9P93g7gufr7wJ-339" value="+ getCalificacion(): float" style="text;align=left;verticalAlign=top;spacingLeft=4;spacingRight=4;overflow=hidden;rotatable=0;points=[[0,0.5],[1,0.5]];portConstraint=eastwest;" vertex="1" parent="MLmQVyr9P93g7gufr7wJ-306">
          <mxGeometry y="424" width="395" height="26" as="geometry" />
        </mxCell>
        <mxCell id="MLmQVyr9P93g7gufr7wJ-319" value="+ getCorreo(): String" style="text;align=left;verticalAlign=top;spacingLeft=4;spacingRight=4;overflow=hidden;rotatable=0;points=[[0,0.5],[1,0.5]];portConstraint=eastwest;" vertex="1" parent="MLmQVyr9P93g7gufr7wJ-306">
          <mxGeometry y="450" width="395" height="26" as="geometry" />
        </mxCell>
        <mxCell id="MLmQVyr9P93g7gufr7wJ-320" value="+ getViajeEnCurso(): Viaje" style="text;align=left;verticalAlign=top;spacingLeft=4;spacingRight=4;overflow=hidden;rotatable=0;points=[[0,0.5],[1,0.5]];portConstraint=eastwest;" vertex="1" parent="MLmQVyr9P93g7gufr7wJ-306">
          <mxGeometry y="476" width="395" height="26" as="geometry" />
        </mxCell>
        <mxCell id="MLmQVyr9P93g7gufr7wJ-342" value="+ getViajes(): int" style="text;align=left;verticalAlign=top;spacingLeft=4;spacingRight=4;overflow=hidden;rotatable=0;points=[[0,0.5],[1,0.5]];portConstraint=eastwest;" vertex="1" parent="MLmQVyr9P93g7gufr7wJ-306">
          <mxGeometry y="502" width="395" height="26" as="geometry" />
        </mxCell>
        <mxCell id="MLmQVyr9P93g7gufr7wJ-321" value="+ setViajes(): void" style="text;align=left;verticalAlign=top;spacingLeft=4;spacingRight=4;overflow=hidden;rotatable=0;points=[[0,0.5],[1,0.5]];portConstraint=eastwest;" vertex="1" parent="MLmQVyr9P93g7gufr7wJ-306">
          <mxGeometry y="528" width="395" height="26" as="geometry" />
        </mxCell>
        <mxCell id="MLmQVyr9P93g7gufr7wJ-343" value="+ getUbicacion(): String" style="text;align=left;verticalAlign=top;spacingLeft=4;spacingRight=4;overflow=hidden;rotatable=0;points=[[0,0.5],[1,0.5]];portConstraint=eastwest;" vertex="1" parent="MLmQVyr9P93g7gufr7wJ-306">
          <mxGeometry y="554" width="395" height="26" as="geometry" />
        </mxCell>
        <mxCell id="MLmQVyr9P93g7gufr7wJ-345" value="- cancelarViaje(): void" style="text;align=left;verticalAlign=top;spacingLeft=4;spacingRight=4;overflow=hidden;rotatable=0;points=[[0,0.5],[1,0.5]];portConstraint=eastwest;" vertex="1" parent="MLmQVyr9P93g7gufr7wJ-306">
          <mxGeometry y="580" width="395" height="26" as="geometry" />
        </mxCell>
        <mxCell id="MLmQVyr9P93g7gufr7wJ-426" value="- solicitarNuevoVehiculo(String Placa, String Modelo, String Color): void" style="text;align=left;verticalAlign=top;spacingLeft=4;spacingRight=4;overflow=hidden;rotatable=0;points=[[0,0.5],[1,0.5]];portConstraint=eastwest;" vertex="1" parent="MLmQVyr9P93g7gufr7wJ-306">
          <mxGeometry y="606" width="395" height="26" as="geometry" />
        </mxCell>
        <mxCell id="MLmQVyr9P93g7gufr7wJ-470" value="+ addVehiculoAporvado(Vehiculo vehiculo): void" style="text;align=left;verticalAlign=top;spacingLeft=4;spacingRight=4;overflow=hidden;rotatable=0;points=[[0,0.5],[1,0.5]];portConstraint=eastwest;fontStyle=4" vertex="1" parent="MLmQVyr9P93g7gufr7wJ-306">
          <mxGeometry y="632" width="395" height="26" as="geometry" />
        </mxCell>
        <mxCell id="MLmQVyr9P93g7gufr7wJ-402" value="Admin" style="swimlane;fontStyle=0;align=center;verticalAlign=top;childLayout=stackLayout;horizontal=1;startSize=26;horizontalStack=0;resizeParent=1;resizeLast=0;collapsible=1;marginBottom=0;rounded=0;shadow=0;strokeWidth=1;" vertex="1" parent="WIyWlLk6GJQsqaUBKTNV-1">
          <mxGeometry x="1130" y="40" width="353" height="242" as="geometry">
            <mxRectangle x="130" y="380" width="160" height="26" as="alternateBounds" />
          </mxGeometry>
        </mxCell>
        <mxCell id="MLmQVyr9P93g7gufr7wJ-403" value="- nombre: String" style="text;align=left;verticalAlign=top;spacingLeft=4;spacingRight=4;overflow=hidden;rotatable=0;points=[[0,0.5],[1,0.5]];portConstraint=eastwest;" vertex="1" parent="MLmQVyr9P93g7gufr7wJ-402">
          <mxGeometry y="26" width="353" height="26" as="geometry" />
        </mxCell>
        <mxCell id="MLmQVyr9P93g7gufr7wJ-406" value="- correo: String" style="text;align=left;verticalAlign=top;spacingLeft=4;spacingRight=4;overflow=hidden;rotatable=0;points=[[0,0.5],[1,0.5]];portConstraint=eastwest;" vertex="1" parent="MLmQVyr9P93g7gufr7wJ-402">
          <mxGeometry y="52" width="353" height="26" as="geometry" />
        </mxCell>
        <mxCell id="MLmQVyr9P93g7gufr7wJ-435" value="- disponibilidad: Bool" style="text;align=left;verticalAlign=top;spacingLeft=4;spacingRight=4;overflow=hidden;rotatable=0;points=[[0,0.5],[1,0.5]];portConstraint=eastwest;" vertex="1" parent="MLmQVyr9P93g7gufr7wJ-402">
          <mxGeometry y="78" width="353" height="26" as="geometry" />
        </mxCell>
        <mxCell id="MLmQVyr9P93g7gufr7wJ-404" value="" style="line;html=1;strokeWidth=1;align=left;verticalAlign=middle;spacingTop=-1;spacingLeft=3;spacingRight=3;rotatable=0;labelPosition=right;points=[];portConstraint=eastwest;" vertex="1" parent="MLmQVyr9P93g7gufr7wJ-402">
          <mxGeometry y="104" width="353" height="8" as="geometry" />
        </mxCell>
        <mxCell id="MLmQVyr9P93g7gufr7wJ-469" value="+ Admin(String nombre, String correo)" style="text;align=left;verticalAlign=top;spacingLeft=4;spacingRight=4;overflow=hidden;rotatable=0;points=[[0,0.5],[1,0.5]];portConstraint=eastwest;" vertex="1" parent="MLmQVyr9P93g7gufr7wJ-402">
          <mxGeometry y="112" width="353" height="26" as="geometry" />
        </mxCell>
        <mxCell id="MLmQVyr9P93g7gufr7wJ-409" value="+ getViajePorPasajero(Pasajero pasajero, Viaje viaje): viaje" style="text;align=left;verticalAlign=top;spacingLeft=4;spacingRight=4;overflow=hidden;rotatable=0;points=[[0,0.5],[1,0.5]];portConstraint=eastwest;" vertex="1" parent="MLmQVyr9P93g7gufr7wJ-402">
          <mxGeometry y="138" width="353" height="26" as="geometry" />
        </mxCell>
        <mxCell id="MLmQVyr9P93g7gufr7wJ-428" value="+ aprobarVehiculo(Vehiculo vehiculo): void" style="text;align=left;verticalAlign=top;spacingLeft=4;spacingRight=4;overflow=hidden;rotatable=0;points=[[0,0.5],[1,0.5]];portConstraint=eastwest;" vertex="1" parent="MLmQVyr9P93g7gufr7wJ-402">
          <mxGeometry y="164" width="353" height="26" as="geometry" />
        </mxCell>
        <mxCell id="MLmQVyr9P93g7gufr7wJ-427" value="+ getDisponibilidad(): Bool" style="text;align=left;verticalAlign=top;spacingLeft=4;spacingRight=4;overflow=hidden;rotatable=0;points=[[0,0.5],[1,0.5]];portConstraint=eastwest;" vertex="1" parent="MLmQVyr9P93g7gufr7wJ-402">
          <mxGeometry y="190" width="353" height="26" as="geometry" />
        </mxCell>
        <mxCell id="MLmQVyr9P93g7gufr7wJ-436" value="+ setDisponibilidad(): void" style="text;align=left;verticalAlign=top;spacingLeft=4;spacingRight=4;overflow=hidden;rotatable=0;points=[[0,0.5],[1,0.5]];portConstraint=eastwest;" vertex="1" parent="MLmQVyr9P93g7gufr7wJ-402">
          <mxGeometry y="216" width="353" height="26" as="geometry" />
        </mxCell>
        <mxCell id="MLmQVyr9P93g7gufr7wJ-415" value="Se reporta en el viaje mas reciente" style="shape=callout;whiteSpace=wrap;html=1;perimeter=calloutPerimeter;fillColor=#fff2cc;strokeColor=#d6b656;position2=1;" vertex="1" parent="WIyWlLk6GJQsqaUBKTNV-1">
          <mxGeometry x="-710" y="880" width="120" height="70" as="geometry" />
        </mxCell>
        <mxCell id="MLmQVyr9P93g7gufr7wJ-417" value="" style="endArrow=open;html=1;rounded=0;endFill=0;entryX=0.75;entryY=0;entryDx=0;entryDy=0;exitX=0;exitY=1;exitDx=0;exitDy=0;" edge="1" parent="WIyWlLk6GJQsqaUBKTNV-1" source="MLmQVyr9P93g7gufr7wJ-41" target="zkfFHV4jXpPFQw0GAbJ--6">
          <mxGeometry relative="1" as="geometry">
            <mxPoint x="-175" y="210" as="sourcePoint" />
            <mxPoint x="-240" y="400" as="targetPoint" />
            <Array as="points">
              <mxPoint x="-245" y="280" />
            </Array>
          </mxGeometry>
        </mxCell>
        <mxCell id="MLmQVyr9P93g7gufr7wJ-418" value="* &lt;br&gt;Reportes" style="edgeLabel;resizable=0;html=1;align=right;verticalAlign=bottom;" connectable="0" vertex="1" parent="MLmQVyr9P93g7gufr7wJ-417">
          <mxGeometry x="1" relative="1" as="geometry">
            <mxPoint x="-2" y="-10" as="offset" />
          </mxGeometry>
        </mxCell>
        <mxCell id="MLmQVyr9P93g7gufr7wJ-419" value="Vehiculo" style="swimlane;fontStyle=0;align=center;verticalAlign=top;childLayout=stackLayout;horizontal=1;startSize=30;horizontalStack=0;resizeParent=1;resizeLast=0;collapsible=1;marginBottom=0;rounded=0;shadow=0;strokeWidth=1;" vertex="1" parent="WIyWlLk6GJQsqaUBKTNV-1">
          <mxGeometry x="740" y="1220" width="295" height="370" as="geometry">
            <mxRectangle x="130" y="380" width="160" height="26" as="alternateBounds" />
          </mxGeometry>
        </mxCell>
        <mxCell id="MLmQVyr9P93g7gufr7wJ-420" value="- placa: String" style="text;align=left;verticalAlign=top;spacingLeft=4;spacingRight=4;overflow=hidden;rotatable=0;points=[[0,0.5],[1,0.5]];portConstraint=eastwest;" vertex="1" parent="MLmQVyr9P93g7gufr7wJ-419">
          <mxGeometry y="30" width="295" height="30" as="geometry" />
        </mxCell>
        <mxCell id="MLmQVyr9P93g7gufr7wJ-429" value="- modelo: String" style="text;align=left;verticalAlign=top;spacingLeft=4;spacingRight=4;overflow=hidden;rotatable=0;points=[[0,0.5],[1,0.5]];portConstraint=eastwest;" vertex="1" parent="MLmQVyr9P93g7gufr7wJ-419">
          <mxGeometry y="60" width="295" height="30" as="geometry" />
        </mxCell>
        <mxCell id="MLmQVyr9P93g7gufr7wJ-430" value="- color: String" style="text;align=left;verticalAlign=top;spacingLeft=4;spacingRight=4;overflow=hidden;rotatable=0;points=[[0,0.5],[1,0.5]];portConstraint=eastwest;" vertex="1" parent="MLmQVyr9P93g7gufr7wJ-419">
          <mxGeometry y="90" width="295" height="30" as="geometry" />
        </mxCell>
        <mxCell id="MLmQVyr9P93g7gufr7wJ-431" value="- aporvado : bool" style="text;align=left;verticalAlign=top;spacingLeft=4;spacingRight=4;overflow=hidden;rotatable=0;points=[[0,0.5],[1,0.5]];portConstraint=eastwest;" vertex="1" parent="MLmQVyr9P93g7gufr7wJ-419">
          <mxGeometry y="120" width="295" height="30" as="geometry" />
        </mxCell>
        <mxCell id="MLmQVyr9P93g7gufr7wJ-432" value="- catergoria: String" style="text;align=left;verticalAlign=top;spacingLeft=4;spacingRight=4;overflow=hidden;rotatable=0;points=[[0,0.5],[1,0.5]];portConstraint=eastwest;" vertex="1" parent="MLmQVyr9P93g7gufr7wJ-419">
          <mxGeometry y="150" width="295" height="30" as="geometry" />
        </mxCell>
        <mxCell id="MLmQVyr9P93g7gufr7wJ-421" value="" style="line;html=1;strokeWidth=1;align=left;verticalAlign=middle;spacingTop=-1;spacingLeft=3;spacingRight=3;rotatable=0;labelPosition=right;points=[];portConstraint=eastwest;" vertex="1" parent="MLmQVyr9P93g7gufr7wJ-419">
          <mxGeometry y="180" width="295" height="8" as="geometry" />
        </mxCell>
        <mxCell id="MLmQVyr9P93g7gufr7wJ-422" value="+ Vehiculo(String placa, String modelo, String color)" style="text;align=left;verticalAlign=top;spacingLeft=4;spacingRight=4;overflow=hidden;rotatable=0;points=[[0,0.5],[1,0.5]];portConstraint=eastwest;" vertex="1" parent="MLmQVyr9P93g7gufr7wJ-419">
          <mxGeometry y="188" width="295" height="26" as="geometry" />
        </mxCell>
        <mxCell id="MLmQVyr9P93g7gufr7wJ-439" value="+ getPlaca(): String" style="text;align=left;verticalAlign=top;spacingLeft=4;spacingRight=4;overflow=hidden;rotatable=0;points=[[0,0.5],[1,0.5]];portConstraint=eastwest;" vertex="1" parent="MLmQVyr9P93g7gufr7wJ-419">
          <mxGeometry y="214" width="295" height="26" as="geometry" />
        </mxCell>
        <mxCell id="MLmQVyr9P93g7gufr7wJ-438" value="+ getModelo(): String" style="text;align=left;verticalAlign=top;spacingLeft=4;spacingRight=4;overflow=hidden;rotatable=0;points=[[0,0.5],[1,0.5]];portConstraint=eastwest;" vertex="1" parent="MLmQVyr9P93g7gufr7wJ-419">
          <mxGeometry y="240" width="295" height="26" as="geometry" />
        </mxCell>
        <mxCell id="MLmQVyr9P93g7gufr7wJ-440" value="+ getAprovado(): bool" style="text;align=left;verticalAlign=top;spacingLeft=4;spacingRight=4;overflow=hidden;rotatable=0;points=[[0,0.5],[1,0.5]];portConstraint=eastwest;" vertex="1" parent="MLmQVyr9P93g7gufr7wJ-419">
          <mxGeometry y="266" width="295" height="26" as="geometry" />
        </mxCell>
        <mxCell id="MLmQVyr9P93g7gufr7wJ-441" value="+ getCategoria(): String" style="text;align=left;verticalAlign=top;spacingLeft=4;spacingRight=4;overflow=hidden;rotatable=0;points=[[0,0.5],[1,0.5]];portConstraint=eastwest;" vertex="1" parent="MLmQVyr9P93g7gufr7wJ-419">
          <mxGeometry y="292" width="295" height="26" as="geometry" />
        </mxCell>
        <mxCell id="MLmQVyr9P93g7gufr7wJ-442" value="+ setCategoria(): void" style="text;align=left;verticalAlign=top;spacingLeft=4;spacingRight=4;overflow=hidden;rotatable=0;points=[[0,0.5],[1,0.5]];portConstraint=eastwest;" vertex="1" parent="MLmQVyr9P93g7gufr7wJ-419">
          <mxGeometry y="318" width="295" height="26" as="geometry" />
        </mxCell>
        <mxCell id="MLmQVyr9P93g7gufr7wJ-443" value="+ setAprovado(): void" style="text;align=left;verticalAlign=top;spacingLeft=4;spacingRight=4;overflow=hidden;rotatable=0;points=[[0,0.5],[1,0.5]];portConstraint=eastwest;" vertex="1" parent="MLmQVyr9P93g7gufr7wJ-419">
          <mxGeometry y="344" width="295" height="26" as="geometry" />
        </mxCell>
        <mxCell id="MLmQVyr9P93g7gufr7wJ-444" value="" style="endArrow=open;html=1;rounded=0;entryX=0.5;entryY=0;entryDx=0;entryDy=0;endFill=0;exitX=0.5;exitY=1;exitDx=0;exitDy=0;" edge="1" parent="WIyWlLk6GJQsqaUBKTNV-1" source="MLmQVyr9P93g7gufr7wJ-306" target="MLmQVyr9P93g7gufr7wJ-419">
          <mxGeometry width="50" height="50" relative="1" as="geometry">
            <mxPoint x="670" y="1090" as="sourcePoint" />
            <mxPoint x="600" y="1000" as="targetPoint" />
          </mxGeometry>
        </mxCell>
        <mxCell id="MLmQVyr9P93g7gufr7wJ-445" value="1..*&lt;br&gt;Vehiculos" style="edgeLabel;resizable=0;html=1;align=right;verticalAlign=bottom;" connectable="0" vertex="1" parent="WIyWlLk6GJQsqaUBKTNV-1">
          <mxGeometry x="540" y="1210" width="395" as="geometry" />
        </mxCell>
        <mxCell id="MLmQVyr9P93g7gufr7wJ-446" value="" style="endArrow=open;html=1;rounded=0;entryX=0;entryY=0.5;entryDx=0;entryDy=0;endFill=0;exitX=1.001;exitY=0.227;exitDx=0;exitDy=0;exitPerimeter=0;" edge="1" parent="WIyWlLk6GJQsqaUBKTNV-1" source="MLmQVyr9P93g7gufr7wJ-48" target="MLmQVyr9P93g7gufr7wJ-403">
          <mxGeometry relative="1" as="geometry">
            <mxPoint x="950" y="60" as="sourcePoint" />
            <mxPoint x="805" y="420" as="targetPoint" />
            <Array as="points" />
          </mxGeometry>
        </mxCell>
        <mxCell id="MLmQVyr9P93g7gufr7wJ-447" value="*&lt;br&gt;administradores" style="edgeLabel;resizable=0;html=1;align=right;verticalAlign=bottom;" connectable="0" vertex="1" parent="MLmQVyr9P93g7gufr7wJ-446">
          <mxGeometry x="1" relative="1" as="geometry">
            <mxPoint x="-10" as="offset" />
          </mxGeometry>
        </mxCell>
        <mxCell id="MLmQVyr9P93g7gufr7wJ-455" value="" style="endArrow=classic;html=1;rounded=0;exitX=0;exitY=0.5;exitDx=0;exitDy=0;entryX=1;entryY=0.5;entryDx=0;entryDy=0;" edge="1" parent="WIyWlLk6GJQsqaUBKTNV-1" source="MLmQVyr9P93g7gufr7wJ-351" target="MLmQVyr9P93g7gufr7wJ-353">
          <mxGeometry width="50" height="50" relative="1" as="geometry">
            <mxPoint x="60" y="750" as="sourcePoint" />
            <mxPoint x="110" y="700" as="targetPoint" />
          </mxGeometry>
        </mxCell>
        <mxCell id="MLmQVyr9P93g7gufr7wJ-456" value="cancelarViaje():" style="edgeLabel;html=1;align=center;verticalAlign=middle;resizable=0;points=[];" vertex="1" connectable="0" parent="MLmQVyr9P93g7gufr7wJ-455">
          <mxGeometry x="-0.5564" y="-2" relative="1" as="geometry">
            <mxPoint as="offset" />
          </mxGeometry>
        </mxCell>
        <mxCell id="MLmQVyr9P93g7gufr7wJ-457" value="" style="group" vertex="1" connectable="0" parent="WIyWlLk6GJQsqaUBKTNV-1">
          <mxGeometry x="120.00006459244696" y="629.9982347295796" as="geometry" />
        </mxCell>
        <mxCell id="MLmQVyr9P93g7gufr7wJ-74" value="0..1&lt;br&gt;viajeEnCurso" style="edgeLabel;resizable=0;html=1;align=right;verticalAlign=bottom;container=1;" connectable="0" vertex="1" parent="MLmQVyr9P93g7gufr7wJ-457">
          <mxGeometry as="geometry" />
        </mxCell>
        <mxCell id="MLmQVyr9P93g7gufr7wJ-459" value="" style="endArrow=classic;html=1;rounded=0;exitX=1.005;exitY=0.852;exitDx=0;exitDy=0;entryX=-0.011;entryY=0.852;entryDx=0;entryDy=0;entryPerimeter=0;exitPerimeter=0;" edge="1" parent="WIyWlLk6GJQsqaUBKTNV-1" source="MLmQVyr9P93g7gufr7wJ-350">
          <mxGeometry width="50" height="50" relative="1" as="geometry">
            <mxPoint x="810" y="660" as="sourcePoint" />
            <mxPoint x="685.6550000000002" y="640.152" as="targetPoint" />
          </mxGeometry>
        </mxCell>
        <mxCell id="MLmQVyr9P93g7gufr7wJ-460" value="cancelarViaje():" style="edgeLabel;html=1;align=center;verticalAlign=middle;resizable=0;points=[];" vertex="1" connectable="0" parent="MLmQVyr9P93g7gufr7wJ-459">
          <mxGeometry x="-0.5564" y="-2" relative="1" as="geometry">
            <mxPoint as="offset" />
          </mxGeometry>
        </mxCell>
        <mxCell id="MLmQVyr9P93g7gufr7wJ-463" value="" style="endArrow=open;html=1;rounded=0;exitX=-0.005;exitY=0.108;exitDx=0;exitDy=0;entryX=1.009;entryY=0.138;entryDx=0;entryDy=0;endFill=0;exitPerimeter=0;entryPerimeter=0;" edge="1" parent="WIyWlLk6GJQsqaUBKTNV-1" target="MLmQVyr9P93g7gufr7wJ-350">
          <mxGeometry width="50" height="50" relative="1" as="geometry">
            <mxPoint x="688.0250000000001" y="620.808" as="sourcePoint" />
            <mxPoint x="500" y="617.05" as="targetPoint" />
          </mxGeometry>
        </mxCell>
        <mxCell id="MLmQVyr9P93g7gufr7wJ-464" value="0..1&lt;br&gt;viajeEnCurso" style="edgeLabel;resizable=0;html=1;align=right;verticalAlign=bottom;container=1;" connectable="0" vertex="1" parent="WIyWlLk6GJQsqaUBKTNV-1">
          <mxGeometry x="220" y="620" width="350" as="geometry" />
        </mxCell>
        <mxCell id="MLmQVyr9P93g7gufr7wJ-471" value="" style="group" vertex="1" connectable="0" parent="WIyWlLk6GJQsqaUBKTNV-1">
          <mxGeometry x="110.00006459244696" y="559.9982347295796" as="geometry" />
        </mxCell>
        <mxCell id="MLmQVyr9P93g7gufr7wJ-472" value="*&lt;br&gt;viajesPrevios" style="edgeLabel;resizable=0;html=1;align=right;verticalAlign=bottom;container=1;" connectable="0" vertex="1" parent="MLmQVyr9P93g7gufr7wJ-471">
          <mxGeometry as="geometry" />
        </mxCell>
        <mxCell id="MLmQVyr9P93g7gufr7wJ-473" value="" style="endArrow=open;html=1;rounded=0;entryX=-0.004;entryY=0.982;entryDx=0;entryDy=0;endFill=0;exitX=1.002;exitY=0.015;exitDx=0;exitDy=0;exitPerimeter=0;entryPerimeter=0;" edge="1" parent="WIyWlLk6GJQsqaUBKTNV-1" target="zkfFHV4jXpPFQw0GAbJ--21">
          <mxGeometry width="50" height="50" relative="1" as="geometry">
            <mxPoint x="-129.07999999999993" y="566.3900000000001" as="sourcePoint" />
            <mxPoint x="50" y="650" as="targetPoint" />
          </mxGeometry>
        </mxCell>
        <mxCell id="MLmQVyr9P93g7gufr7wJ-451" value="" style="endArrow=open;html=1;rounded=0;entryX=0;entryY=0.5;entryDx=0;entryDy=0;endFill=0;" edge="1" parent="WIyWlLk6GJQsqaUBKTNV-1" target="MLmQVyr9P93g7gufr7wJ-350">
          <mxGeometry width="50" height="50" relative="1" as="geometry">
            <mxPoint x="-130" y="631" as="sourcePoint" />
            <mxPoint x="40" y="640" as="targetPoint" />
          </mxGeometry>
        </mxCell>
        <mxCell id="MLmQVyr9P93g7gufr7wJ-475" value="" style="group" vertex="1" connectable="0" parent="WIyWlLk6GJQsqaUBKTNV-1">
          <mxGeometry x="550.000064592447" y="549.9982347295796" as="geometry" />
        </mxCell>
        <mxCell id="MLmQVyr9P93g7gufr7wJ-476" value="*&lt;br&gt;viajesPrevios" style="edgeLabel;resizable=0;html=1;align=right;verticalAlign=bottom;container=1;" connectable="0" vertex="1" parent="MLmQVyr9P93g7gufr7wJ-475">
          <mxGeometry as="geometry" />
        </mxCell>
        <mxCell id="MLmQVyr9P93g7gufr7wJ-481" value="Solcuionar reporte busca un admnin que se encargue de revisarlo" style="shape=callout;whiteSpace=wrap;html=1;perimeter=calloutPerimeter;position2=0.07;fillColor=#fff2cc;strokeColor=#d6b656;" vertex="1" parent="WIyWlLk6GJQsqaUBKTNV-1">
          <mxGeometry x="-230" y="310" width="140" height="90" as="geometry" />
        </mxCell>
        <mxCell id="MLmQVyr9P93g7gufr7wJ-482" value="el conductor solicita que le aprueben y le categoricen su vehiculo, esto se hace por UB*R" style="shape=callout;whiteSpace=wrap;html=1;perimeter=calloutPerimeter;position2=0;fillColor=#fff2cc;strokeColor=#d6b656;" vertex="1" parent="WIyWlLk6GJQsqaUBKTNV-1">
          <mxGeometry x="1090" y="940" width="140" height="90" as="geometry" />
        </mxCell>
        <mxCell id="MLmQVyr9P93g7gufr7wJ-484" value="Tarjeta" style="swimlane;fontStyle=0;align=center;verticalAlign=top;childLayout=stackLayout;horizontal=1;startSize=30;horizontalStack=0;resizeParent=1;resizeLast=0;collapsible=1;marginBottom=0;rounded=0;shadow=0;strokeWidth=1;" vertex="1" parent="WIyWlLk6GJQsqaUBKTNV-1">
          <mxGeometry x="-507.5" y="1169" width="295" height="181" as="geometry">
            <mxRectangle x="130" y="380" width="160" height="26" as="alternateBounds" />
          </mxGeometry>
        </mxCell>
        <mxCell id="MLmQVyr9P93g7gufr7wJ-485" value="- codigo: int" style="text;align=left;verticalAlign=top;spacingLeft=4;spacingRight=4;overflow=hidden;rotatable=0;points=[[0,0.5],[1,0.5]];portConstraint=eastwest;" vertex="1" parent="MLmQVyr9P93g7gufr7wJ-484">
          <mxGeometry y="30" width="295" height="30" as="geometry" />
        </mxCell>
        <mxCell id="MLmQVyr9P93g7gufr7wJ-486" value="- nombreDelPropietario: String" style="text;align=left;verticalAlign=top;spacingLeft=4;spacingRight=4;overflow=hidden;rotatable=0;points=[[0,0.5],[1,0.5]];portConstraint=eastwest;" vertex="1" parent="MLmQVyr9P93g7gufr7wJ-484">
          <mxGeometry y="60" width="295" height="30" as="geometry" />
        </mxCell>
        <mxCell id="MLmQVyr9P93g7gufr7wJ-490" value="" style="line;html=1;strokeWidth=1;align=left;verticalAlign=middle;spacingTop=-1;spacingLeft=3;spacingRight=3;rotatable=0;labelPosition=right;points=[];portConstraint=eastwest;" vertex="1" parent="MLmQVyr9P93g7gufr7wJ-484">
          <mxGeometry y="90" width="295" height="8" as="geometry" />
        </mxCell>
        <mxCell id="MLmQVyr9P93g7gufr7wJ-491" value="+ Tarjeta(int, codigo, String nombreDelPropietario)" style="text;align=left;verticalAlign=top;spacingLeft=4;spacingRight=4;overflow=hidden;rotatable=0;points=[[0,0.5],[1,0.5]];portConstraint=eastwest;" vertex="1" parent="MLmQVyr9P93g7gufr7wJ-484">
          <mxGeometry y="98" width="295" height="26" as="geometry" />
        </mxCell>
        <mxCell id="MLmQVyr9P93g7gufr7wJ-498" value="+ getCodigo(): void" style="text;align=left;verticalAlign=top;spacingLeft=4;spacingRight=4;overflow=hidden;rotatable=0;points=[[0,0.5],[1,0.5]];portConstraint=eastwest;" vertex="1" parent="MLmQVyr9P93g7gufr7wJ-484">
          <mxGeometry y="124" width="295" height="26" as="geometry" />
        </mxCell>
        <mxCell id="MLmQVyr9P93g7gufr7wJ-499" value="+ getNombreDelPropietario(): void" style="text;align=left;verticalAlign=top;spacingLeft=4;spacingRight=4;overflow=hidden;rotatable=0;points=[[0,0.5],[1,0.5]];portConstraint=eastwest;" vertex="1" parent="MLmQVyr9P93g7gufr7wJ-484">
          <mxGeometry y="150" width="295" height="26" as="geometry" />
        </mxCell>
        <mxCell id="MLmQVyr9P93g7gufr7wJ-502" value="" style="group" vertex="1" connectable="0" parent="WIyWlLk6GJQsqaUBKTNV-1">
          <mxGeometry x="-259.99993540755304" y="1149.9982347295795" as="geometry" />
        </mxCell>
        <mxCell id="MLmQVyr9P93g7gufr7wJ-503" value="*&lt;br&gt;tarjetasRegistradas" style="edgeLabel;resizable=0;html=1;align=right;verticalAlign=bottom;container=1;" connectable="0" vertex="1" parent="MLmQVyr9P93g7gufr7wJ-502">
          <mxGeometry as="geometry" />
        </mxCell>
      </root>
    </mxGraphModel>
  </diagram>
</mxfile>
